<mxfile host="app.diagrams.net" modified="2021-08-14T04:09:11.739Z" agent="5.0 (Windows NT 10.0; Win64; x64) AppleWebKit/537.36 (KHTML, like Gecko) Chrome/92.0.4515.131 Safari/537.36" etag="rDc6qARflPbrnKGq_tCG" version="14.9.6" type="github">
  <diagram id="pxMbGjhxvE2CzqyP1hJF" name="Page-1">
    <mxGraphModel dx="868" dy="482" grid="1" gridSize="10" guides="1" tooltips="1" connect="1" arrows="1" fold="1" page="1" pageScale="1" pageWidth="850" pageHeight="1100" math="0" shadow="0">
      <root>
        <mxCell id="0" />
        <mxCell id="1" parent="0" />
        <mxCell id="L8xHCt0ksTSfUMufu73G-1" value="" style="whiteSpace=wrap;html=1;aspect=fixed;" vertex="1" parent="1">
          <mxGeometry x="65" y="50" width="210" height="210" as="geometry" />
        </mxCell>
        <mxCell id="L8xHCt0ksTSfUMufu73G-3" value="" style="rounded=0;whiteSpace=wrap;html=1;" vertex="1" parent="1">
          <mxGeometry x="440" y="170" width="280" height="80" as="geometry" />
        </mxCell>
        <mxCell id="L8xHCt0ksTSfUMufu73G-4" value="" style="rounded=0;whiteSpace=wrap;html=1;" vertex="1" parent="1">
          <mxGeometry x="440" y="10" width="280" height="100" as="geometry" />
        </mxCell>
        <mxCell id="L8xHCt0ksTSfUMufu73G-5" value="" style="rounded=0;whiteSpace=wrap;html=1;" vertex="1" parent="1">
          <mxGeometry x="440" y="300" width="280" height="70" as="geometry" />
        </mxCell>
        <mxCell id="L8xHCt0ksTSfUMufu73G-12" value="" style="edgeStyle=entityRelationEdgeStyle;fontSize=12;html=1;endArrow=ERmany;entryX=0;entryY=0.5;entryDx=0;entryDy=0;" edge="1" parent="1" target="L8xHCt0ksTSfUMufu73G-4">
          <mxGeometry width="100" height="100" relative="1" as="geometry">
            <mxPoint x="200" y="200" as="sourcePoint" />
            <mxPoint x="300" y="100" as="targetPoint" />
          </mxGeometry>
        </mxCell>
        <mxCell id="L8xHCt0ksTSfUMufu73G-15" value="Submit" style="whiteSpace=wrap;html=1;align=center;" vertex="1" parent="1">
          <mxGeometry x="150" y="190" width="50" height="20" as="geometry" />
        </mxCell>
        <mxCell id="L8xHCt0ksTSfUMufu73G-16" value="Username" style="whiteSpace=wrap;html=1;align=center;" vertex="1" parent="1">
          <mxGeometry x="115" y="110" width="125" height="20" as="geometry" />
        </mxCell>
        <mxCell id="L8xHCt0ksTSfUMufu73G-17" value="Password" style="whiteSpace=wrap;html=1;align=center;" vertex="1" parent="1">
          <mxGeometry x="115" y="150" width="125" height="20" as="geometry" />
        </mxCell>
        <mxCell id="L8xHCt0ksTSfUMufu73G-19" value="Login" style="text;strokeColor=none;fillColor=none;spacingLeft=4;spacingRight=4;overflow=hidden;rotatable=0;points=[[0,0.5],[1,0.5]];portConstraint=eastwest;fontSize=12;" vertex="1" parent="1">
          <mxGeometry x="150" y="70" width="40" height="30" as="geometry" />
        </mxCell>
        <mxCell id="L8xHCt0ksTSfUMufu73G-20" value="class LoginEvent&#xa;{&#xa; late String username, password;&#xa; LoginEvent(this.username,this.password);&#xa;}" style="text;strokeColor=none;fillColor=none;spacingLeft=4;spacingRight=4;overflow=hidden;rotatable=0;points=[[0,0.5],[1,0.5]];portConstraint=eastwest;fontSize=12;" vertex="1" parent="1">
          <mxGeometry x="460" y="20" width="230" height="80" as="geometry" />
        </mxCell>
        <mxCell id="L8xHCt0ksTSfUMufu73G-21" value="LoginEvent" style="text;strokeColor=none;fillColor=none;spacingLeft=4;spacingRight=4;overflow=hidden;rotatable=0;points=[[0,0.5],[1,0.5]];portConstraint=eastwest;fontSize=12;" vertex="1" parent="1">
          <mxGeometry x="300" y="80" width="100" height="30" as="geometry" />
        </mxCell>
      </root>
    </mxGraphModel>
  </diagram>
</mxfile>
